curl
version=1
nRows=387
nColumns=3
inDegrees=yes
endheader
time	r_shoulder_elev	r_elbow_flex
16.0800	18.253614	35.071518
16.0900	18.230591	34.993985
16.1000	18.208706	34.918555
16.1100	18.187988	34.845221
16.1200	18.168448	34.773968
16.1300	18.150085	34.704766
16.1400	18.132882	34.637579
16.1500	18.116810	34.572366
16.1600	18.101827	34.509085
16.1700	18.087879	34.447698
16.1800	18.074904	34.388178
16.1900	18.062830	34.330514
16.2000	18.051582	34.274714
16.2100	18.041077	34.220819
16.2200	18.031233	34.168903
16.2300	18.021968	34.119089
16.2400	18.013202	34.071549
16.2500	18.004862	34.026519
16.2600	17.996882	33.984305
16.2700	17.989208	33.945292
16.2800	17.981798	33.909953
16.2900	17.974626	33.878860
16.3000	17.967687	33.852687
16.3100	17.960992	33.832223
16.3200	17.954577	33.818372
16.3300	17.948500	33.812165
16.3400	17.942846	33.814759
16.3500	17.937725	33.827439
16.3600	17.933273	33.851621
16.3700	17.929653	33.888850
16.3800	17.927057	33.940793
16.3900	17.925700	34.009237
16.4000	17.925822	34.096079
16.4100	17.927687	34.203319
16.4200	17.931579	34.333045
16.4300	17.937803	34.487422
16.4400	17.946675	34.668675
16.4500	17.958527	34.879074
16.4600	17.973699	35.120914
16.4700	17.992533	35.396498
16.4800	18.015375	35.708115
16.4900	18.042564	36.058022
16.5000	18.074432	36.448419
16.5100	18.111299	36.881433
16.5200	18.153465	37.359089
16.5300	18.201211	37.883297
16.5400	18.254790	38.455825
16.5500	18.314426	39.078282
16.5600	18.380308	39.752095
16.5700	18.452592	40.478492
16.5800	18.531389	41.258483
16.5900	18.616774	42.092843
16.6000	18.708776	42.982097
16.6100	18.807378	43.926502
16.6200	18.912521	44.926042
16.6300	19.024101	45.980409
16.6400	19.141969	47.089004
16.6500	19.265933	48.250926
16.6600	19.395762	49.464977
16.6700	19.531185	50.729660
16.6800	19.671898	52.043186
16.6900	19.817564	53.403483
16.7000	19.967818	54.808212
16.7100	20.122274	56.254778
16.7200	20.280524	57.740356
16.7300	20.442147	59.261908
16.7400	20.606715	60.816212
16.7500	20.773793	62.399887
16.7600	20.942946	64.009423
16.7700	21.113746	65.641208
16.7800	21.285772	67.291562
16.7900	21.458619	68.956760
16.8000	21.631896	70.633070
16.8100	21.805232	72.316775
16.8200	21.978281	74.004202
16.8300	22.150717	75.691752
16.8400	22.322245	77.375918
16.8500	22.492591	79.053313
16.8600	22.661513	80.720688
16.8700	22.828791	82.374948
16.8800	22.994231	84.013170
16.8900	23.157664	85.632610
16.9000	23.318942	87.230718
16.9100	23.477935	88.805138
16.9200	23.634531	90.353713
16.9300	23.788632	91.874484
16.9400	23.940151	93.365687
16.9500	24.089012	94.825742
16.9600	24.235145	96.253249
16.9700	24.378484	97.646972
16.9800	24.518968	99.005827
16.9900	24.656537	100.328868
17.0000	24.791129	101.615264
17.0100	24.922683	102.864292
17.0200	25.051134	104.075311
17.0300	25.176416	105.247754
17.0400	25.298458	106.381106
17.0500	25.417188	107.474896
17.0600	25.532530	108.528683
17.0700	25.644406	109.542047
17.0800	25.752738	110.514584
17.0900	25.857446	111.445900
17.1000	25.958455	112.335614
17.1100	26.055690	113.183354
17.1200	26.149083	113.988770
17.1300	26.238572	114.751533
17.1400	26.324104	115.471351
17.1500	26.405636	116.147975
17.1600	26.483138	116.781216
17.1700	26.556592	117.370957
17.1800	26.625995	117.917168
17.1900	26.691360	118.419919
17.2000	26.752716	118.879396
17.2100	26.810107	119.295916
17.2200	26.863595	119.669936
17.2300	26.913259	120.002061
17.2400	26.959192	120.293059
17.2500	27.001504	120.543858
17.2600	27.040319	120.755555
17.2700	27.075771	120.929412
17.2800	27.108009	121.066855
17.2900	27.137191	121.169466
17.3000	27.163484	121.238977
17.3100	27.187061	121.277257
17.3200	27.208100	121.286302
17.3300	27.226784	121.268214
17.3400	27.243297	121.225189
17.3500	27.257822	121.159495
17.3600	27.270543	121.073452
17.3700	27.281638	120.969414
17.3800	27.291282	120.849744
17.3900	27.299640	120.716798
17.4000	27.306870	120.572896
17.4100	27.313120	120.420312
17.4200	27.318524	120.261246
17.4300	27.323202	120.097812
17.4400	27.327259	119.932019
17.4500	27.330784	119.765758
17.4600	27.333844	119.600789
17.4700	27.336491	119.438729
17.4800	27.338756	119.281045
17.4900	27.340649	119.129044
17.5000	27.342163	118.983873
17.5100	27.343270	118.846513
17.5200	27.343926	118.717776
17.5300	27.344070	118.598307
17.5400	27.343628	118.488589
17.5500	27.342511	118.388941
17.5600	27.340624	118.299525
17.5700	27.337860	118.220350
17.5800	27.334110	118.151282
17.5900	27.329262	118.092047
17.6000	27.323202	118.042240
17.6100	27.315818	118.001336
17.6200	27.307004	117.968696
17.6300	27.296658	117.943575
17.6400	27.284684	117.925136
17.6500	27.270997	117.912456
17.6600	27.255520	117.904539
17.6700	27.238185	117.900323
17.6800	27.218936	117.898691
17.6900	27.197725	117.898483
17.7000	27.174515	117.898506
17.7100	27.149279	117.897544
17.7200	27.121996	117.894371
17.7300	27.092654	117.887760
17.7400	27.061248	117.876494
17.7500	27.027775	117.859381
17.7600	26.992240	117.835259
17.7700	26.954650	117.803014
17.7800	26.915015	117.761583
17.7900	26.873346	117.709972
17.8000	26.829659	117.647260
17.8100	26.783971	117.572611
17.8200	26.736301	117.485280
17.8300	26.686675	117.384622
17.8400	26.635120	117.270101
17.8500	26.581671	117.141289
17.8600	26.526369	116.997874
17.8700	26.469265	116.839662
17.8800	26.410418	116.666578
17.8900	26.349899	116.478663
17.9000	26.287788	116.276076
17.9100	26.224180	116.059085
17.9200	26.159183	115.828067
17.9300	26.092915	115.583497
17.9400	26.025510	115.325938
17.9500	25.957111	115.056038
17.9600	25.887872	114.774509
17.9700	25.817959	114.482121
17.9800	25.747542	114.179688
17.9900	25.676799	113.868050
18.0000	25.605912	113.548065
18.0100	25.535062	113.220590
18.0200	25.464430	112.886470
18.0300	25.394194	112.546525
18.0400	25.324523	112.201537
18.0500	25.255581	111.852239
18.0600	25.187520	111.499308
18.0700	25.120478	111.143352
18.0800	25.054579	110.784907
18.0900	24.989930	110.424429
18.1000	24.926622	110.062290
18.1100	24.864726	109.698777
18.1200	24.804291	109.334090
18.1300	24.745350	108.968341
18.1400	24.687912	108.601559
18.1500	24.631969	108.233687
18.1600	24.577489	107.864593
18.1700	24.524427	107.494068
18.1800	24.472718	107.121833
18.1900	24.422284	106.747546
18.2000	24.373032	106.370805
18.2100	24.324864	105.991155
18.2200	24.277672	105.608092
18.2300	24.231347	105.221072
18.2400	24.185780	104.829510
18.2500	24.140867	104.432790
18.2600	24.096511	104.030268
18.2700	24.052626	103.621275
18.2800	24.009141	103.205124
18.2900	23.966002	102.781112
18.3000	23.923171	102.348524
18.3100	23.880636	101.906644
18.3200	23.838403	101.454752
18.3300	23.796502	100.992136
18.3400	23.754986	100.518095
18.3500	23.713926	100.031950
18.3600	23.673414	99.533051
18.3700	23.633559	99.020785
18.3800	23.594483	98.494587
18.3900	23.556317	97.953950
18.4000	23.519196	97.398434
18.4100	23.483259	96.827681
18.4200	23.448638	96.241416
18.4300	23.415456	95.639463
18.4400	23.383823	95.021750
18.4500	23.353832	94.388314
18.4600	23.325548	93.739308
18.4700	23.299014	93.075002
18.4800	23.274240	92.395784
18.4900	23.251201	91.702158
18.5000	23.229841	90.994743
18.5100	23.210062	90.274265
18.5200	23.191732	89.541548
18.5300	23.174682	88.797509
18.5400	23.158704	88.043143
18.5500	23.143558	87.279512
18.5600	23.128972	86.507733
18.5700	23.114647	85.728958
18.5800	23.100258	84.944365
18.5900	23.085465	84.155139
18.6000	23.069910	83.362459
18.6100	23.053231	82.567479
18.6200	23.035062	81.771318
18.6300	23.015046	80.975045
18.6400	22.992834	80.179664
18.6500	22.968095	79.386106
18.6600	22.940525	78.595216
18.6700	22.909848	77.807744
18.6800	22.875825	77.024341
18.6900	22.838255	76.245545
18.7000	22.796984	75.471783
18.7100	22.751906	74.703366
18.7200	22.702965	73.940485
18.7300	22.650157	73.183210
18.7400	22.593531	72.431497
18.7500	22.533190	71.685185
18.7600	22.469286	70.944004
18.7700	22.402022	70.207581
18.7800	22.331644	69.475448
18.7900	22.258444	68.747054
18.8000	22.182748	68.021778
18.8100	22.104919	67.298936
18.8200	22.025344	66.577804
18.8300	21.944435	65.857628
18.8400	21.862623	65.137640
18.8500	21.780346	64.417078
18.8600	21.698055	63.695199
18.8700	21.616197	62.971294
18.8800	21.535219	62.244708
18.8900	21.455557	61.514850
18.9000	21.377636	60.781206
18.9100	21.301861	60.043355
18.9200	21.228614	59.300977
18.9300	21.158253	58.553859
18.9400	21.091102	57.801910
18.9500	21.027455	57.045156
18.9600	20.967566	56.283754
18.9700	20.911647	55.517987
18.9800	20.859869	54.748270
18.9900	20.812358	53.975146
19.0000	20.769189	53.199286
19.0100	20.730393	52.421483
19.0200	20.695948	51.642651
19.0300	20.665786	50.863812
19.0400	20.639787	50.086097
19.0500	20.617787	49.310727
19.0600	20.599576	48.539009
19.0700	20.584903	47.772324
19.0800	20.573477	47.012111
19.0900	20.564976	46.259860
19.1000	20.559047	45.517093
19.1100	20.555315	44.785351
19.1200	20.553387	44.066180
19.1300	20.552860	43.361113
19.1400	20.553327	42.671657
19.1500	20.554386	41.999276
19.1600	20.555643	41.345376
19.1700	20.556723	40.711291
19.1800	20.557277	40.098271
19.1900	20.556987	39.507463
19.2000	20.555575	38.939910
19.2100	20.552804	38.396530
19.2200	20.548493	37.878115
19.2300	20.542512	37.385321
19.2400	20.534793	36.918662
19.2500	20.525330	36.478506
19.2600	20.514183	36.065076
19.2700	20.501480	35.678447
19.2800	20.487415	35.318547
19.2900	20.472253	34.985164
19.3000	20.456323	34.677946
19.3100	20.440018	34.396408
19.3200	20.423793	34.139940
19.3300	20.408158	33.907814
19.3400	20.393676	33.699190
19.3500	20.380954	33.513127
19.3600	20.370637	33.348594
19.3700	20.363401	33.204477
19.3800	20.359943	33.079589
19.3900	20.360975	32.972682
19.4000	20.367213	32.882458
19.4100	20.379368	32.807575
19.4200	20.398136	32.746662
19.4300	20.424188	32.698326
19.4400	20.458162	32.661161
19.4500	20.500652	32.633758
19.4600	20.552202	32.614714
19.4700	20.613293	32.602640
19.4800	20.684336	32.596165
19.4900	20.765669	32.593950
19.5000	20.857545	32.594688
19.5100	20.960128	32.597115
19.5200	21.073490	32.600009
19.5300	21.197603	32.602202
19.5400	21.332344	32.602578
19.5500	21.477485	32.600078
19.5600	21.632699	32.593705
19.5700	21.797560	32.582523
19.5800	21.971546	32.565659
19.5900	22.154040	32.542307
19.6000	22.344341	32.511727
19.6100	22.541663	32.473246
19.6200	22.745150	32.426260
19.6300	22.953880	32.370233
19.6400	23.166874	32.304698
19.6500	23.383109	32.229258
19.6600	23.601527	32.143588
19.6700	23.821047	32.047432
19.6800	24.040575	31.940606
19.6900	24.259018	31.822999
19.7000	24.475291	31.694570
19.7100	24.688336	31.555353
19.7200	24.897125	31.405451
19.7300	25.100674	31.245043
19.7400	25.298055	31.074375
19.7500	25.488401	30.893767
19.7600	25.670917	30.703608
19.7700	25.844886	30.504353
19.7800	26.009676	30.296523
19.7900	26.164748	30.080705
19.8000	26.309656	29.857544
19.8100	26.444054	29.627742
19.8200	26.567696	29.392055
19.8300	26.680437	29.151287
19.8400	26.782236	28.906287
19.8500	26.873149	28.657944
19.8600	26.953332	28.407180
19.8700	27.023034	28.154945
19.8800	27.082593	27.902211
19.8900	27.132431	27.649968
19.9000	27.173045	27.399212
19.9100	27.205004	27.150943
19.9200	27.228935	26.906156
19.9300	27.245520	26.665837
19.9400	27.255484	26.430950
